HIERARCHY
ROOT Hips
{
	OFFSET 0.000000 0.000000 0.000000
	CHANNELS 6 Xposition Yposition Zposition Zrotation Yrotation Xrotation 
	JOINT LHipJoint
	{
		OFFSET 0.000000 0.000000 0.000000
		CHANNELS 3 Zrotation Yrotation Xrotation
		JOINT LeftUpLeg
		{
			OFFSET 8.178360 -10.767780 5.035740
			CHANNELS 3 Zrotation Yrotation Xrotation
			JOINT LeftLeg
			{
				OFFSET 14.688660 -40.356780 0.000000
				CHANNELS 3 Zrotation Yrotation Xrotation
				JOINT LeftFoot
				{
					OFFSET 15.373200 -42.237540 0.000000
					CHANNELS 3 Zrotation Yrotation Xrotation
					JOINT LeftToeBase
					{
						OFFSET 0.945840 -2.598660 13.935300
						CHANNELS 3 Zrotation Yrotation Xrotation
						End Site
						{
							OFFSET 0.000000 0.000000 0.000000
						}
					}
				}
			}
		}
	}
	JOINT RHipJoint
	{
		OFFSET 0.000000 0.000000 0.000000
		CHANNELS 3 Zrotation Yrotation Xrotation
		JOINT RightUpLeg
		{
			OFFSET -7.833120 -10.767780 5.035740
			CHANNELS 3 Zrotation Yrotation Xrotation
			JOINT RightLeg
			{
				OFFSET -15.255180 -41.913300 0.000000
				CHANNELS 3 Zrotation Yrotation Xrotation
				JOINT RightFoot
				{
					OFFSET -15.409560 -42.337380 0.000000
					CHANNELS 3 Zrotation Yrotation Xrotation
					JOINT RightToeBase
					{
						OFFSET -0.988380 -2.715540 14.178900
						CHANNELS 3 Zrotation Yrotation Xrotation
						End Site
						{
							OFFSET 0.000000 0.000000 0.000000
						}
					}
				}
			}
		}
	}
	JOINT LowerBack
	{
		OFFSET 0.000000 0.000000 0.000000
		CHANNELS 3 Zrotation Yrotation Xrotation
		JOINT Spine
		{
			OFFSET 0.169620 12.213540 -1.160280
			CHANNELS 3 Zrotation Yrotation Xrotation
			JOINT Spine1
			{
				OFFSET 0.340320 12.293100 -0.256500
				CHANNELS 3 Zrotation Yrotation Xrotation
				JOINT Neck
				{
					OFFSET 0.000000 0.000000 0.000000
					CHANNELS 3 Zrotation Yrotation Xrotation
					JOINT Neck1
					{
						OFFSET -0.325020 10.477440 1.032120
						CHANNELS 3 Zrotation Yrotation Xrotation
						JOINT Head
						{
							OFFSET 0.624420 10.568160 -0.743820
							CHANNELS 3 Zrotation Yrotation Xrotation
							End Site
							{
								OFFSET 0.000000 0.000000 0.000000
							}
						}
					}
				}
				JOINT LeftShoulder
				{
					OFFSET 0.000000 0.000000 0.000000
					CHANNELS 3 Zrotation Yrotation Xrotation
					JOINT LeftArm
					{
						OFFSET 20.174460 7.205340 -1.867260
						CHANNELS 3 Zrotation Yrotation Xrotation
						JOINT LeftForeArm
						{
							OFFSET 29.898000 -0.000000 -0.000000
							CHANNELS 3 Zrotation Yrotation Xrotation
							JOINT LeftHand
							{
								OFFSET 20.901360 -0.000000 -0.000000
								CHANNELS 3 Zrotation Yrotation Xrotation
								JOINT LeftFingerBase
								{
									OFFSET 0.000000 0.000000 0.000000
									CHANNELS 3 Zrotation Yrotation Xrotation
									JOINT LeftHandIndex1
									{
										OFFSET 4.291560 -0.000000 -0.000000
										CHANNELS 3 Zrotation Yrotation Xrotation
										End Site
										{
											OFFSET 0.000000 0.000000 0.000000
										}
									}
								}
								JOINT LThumb
								{
									OFFSET 0.000000 0.000000 0.000000
									CHANNELS 3 Zrotation Yrotation Xrotation
									End Site
									{
										OFFSET 0.000000 0.000000 0.000000
									}
								}
							}
						}
					}
				}
				JOINT RightShoulder
				{
					OFFSET 0.000000 0.000000 0.000000
					CHANNELS 3 Zrotation Yrotation Xrotation
					JOINT RightArm
					{
						OFFSET -18.819600 8.244300 -2.427900
						CHANNELS 3 Zrotation Yrotation Xrotation
						JOINT RightForeArm
						{
							OFFSET -31.451400 -0.000000 -0.000000
							CHANNELS 3 Zrotation Yrotation Xrotation
							JOINT RightHand
							{
								OFFSET -20.665020 -0.000000 -0.000000
								CHANNELS 3 Zrotation Yrotation Xrotation
								JOINT RightFingerBase
								{
									OFFSET 0.000000 0.000000 0.000000
									CHANNELS 3 Zrotation Yrotation Xrotation
									JOINT RightHandIndex1
									{
										OFFSET -3.735180 -0.000000 -0.000000
										CHANNELS 3 Zrotation Yrotation Xrotation
										End Site
										{
											OFFSET 0.000000 0.000000 0.000000
										}
									}
								}
								JOINT RThumb
								{
									OFFSET 0.000000 0.000000 0.000000
									CHANNELS 3 Zrotation Yrotation Xrotation
									End Site
									{
										OFFSET 0.000000 0.000000 0.000000
									}
								}
							}
						}
					}
				}
			}
		}
	}
}
MOTION
Frames:	12
Frame Time:	0.0333333
-69.308934 106.917180 -65.410788 -153.414763 82.206804 -152.820239 -1.929008 2.025575 2.225472 7.012557 -21.313669 -7.259720 0.943499 9.363693 26.891743 1.305942 -3.719912 9.755267 0.266400 -3.320300 -9.171700 1.700073 -1.479252 1.692445 12.548792 5.210352 -3.644974 -0.599400 -7.625822 22.171997 0.465829 -3.847729 -1.935727 -0.502200 4.543200 -12.610000 -0.381510 -0.211630 9.958378 1.606855 -0.088984 0.509409 1.281027 -0.163651 -4.854732 -13.817330 -10.574239 -9.507378 7.384757 -12.541785 21.857532 4.517600 -6.048600 15.556300 -6.508802 -0.759688 -1.571955 -78.878975 4.452105 7.115305 16.568817 -24.171872 -4.389007 -1.524115 -2.480065 6.186267 19.688917 21.584612 8.916700 -7.125000 0.000000 0.000000 -9.065000 55.430900 -2.335000 5.061632 1.808431 -1.053435 81.943935 -5.042063 12.845579 -18.572344 27.343460 -5.038495 0.538702 -0.102249 7.407663 -18.071288 6.980218 -2.348500 7.125000 0.000000 0.000000 5.976300 -22.617400 3.235500 
-69.627966 107.017860 -63.124188 -157.314446 82.558796 -157.571665 -2.555698 1.726225 2.001433 3.606772 -21.347053 -7.750323 1.703015 10.564263 31.229038 2.376703 -13.129078 6.905734 0.356000 -3.833200 -10.607900 1.705604 -1.450631 1.721175 13.150200 5.135647 -3.835425 -0.800412 -8.015557 23.434808 0.311906 -3.234470 -2.189048 -0.405700 4.089200 -11.327700 -0.250781 -0.104871 10.915288 1.565751 0.109717 0.750855 0.954448 -0.063978 -4.818846 -13.833047 -10.564847 -9.320195 7.564353 -12.552722 21.892980 4.602000 -6.029800 15.526600 -6.532666 -0.756606 -1.572852 -79.910914 4.107084 10.102011 16.564012 -24.025344 -4.372190 -1.571870 -2.298616 9.403220 19.334549 20.685833 8.387800 -7.125000 0.000000 0.000000 -9.098800 54.330200 -2.099300 5.037696 1.842926 -1.013134 80.372258 -5.174453 12.699537 -19.261406 28.251019 -5.406997 0.542555 -0.092058 6.211167 -18.163450 7.348851 -2.484800 7.125000 0.000000 0.000000 5.902400 -22.227200 3.247800 
-69.910602 107.218620 -61.199682 -156.681623 83.438355 -156.928116 -3.060405 1.450126 1.844134 -0.134123 -19.471405 -8.893122 2.447082 11.464863 34.480267 2.565755 -18.113268 3.610213 0.538400 -4.701200 -13.058400 1.758939 -1.365497 1.683717 13.883466 5.964192 -4.627685 -0.995779 -8.411969 24.704234 0.218290 -2.873667 -2.728499 -0.249600 3.214800 -8.877500 0.246853 0.095866 10.758385 1.570149 0.450070 0.851530 0.517627 0.105820 -4.489856 -13.521199 -10.356658 -9.264783 7.464607 -12.315448 21.947831 4.530100 -5.899200 15.418700 -6.526609 -0.757298 -1.586884 -81.121677 3.885143 11.857599 16.719079 -24.113190 -4.444719 -1.540311 -2.153008 11.763382 18.629094 19.645553 7.665400 -7.125000 0.000000 0.000000 -9.484500 53.022000 -1.885300 5.026073 1.825242 -0.992716 78.970356 -5.082789 11.489476 -19.703460 28.813297 -5.633543 0.600359 -0.032568 4.503050 -19.263462 6.421429 -2.300100 7.125000 0.000000 0.000000 5.068900 -23.203100 2.671900 
-70.202346 107.245914 -59.405574 -159.835436 84.602293 -160.012545 -3.505898 1.131459 1.791631 -4.729132 -15.912264 -10.431365 2.929708 11.990023 36.543002 2.367112 -22.579000 2.616806 0.301100 -3.528100 -9.752600 1.754392 -1.249660 1.600480 14.030142 6.288229 -5.917007 -1.311369 -8.983449 26.532306 0.025921 -2.127921 -3.154844 -0.181000 2.740600 -7.557400 0.207194 0.313820 10.605649 1.518889 0.723775 0.921479 0.296621 0.256169 -4.234236 -13.424368 -10.051716 -9.502862 7.223198 -11.833418 22.291353 4.476200 -5.701700 15.532200 -6.497456 -0.747385 -1.626255 -82.392821 4.042260 13.462221 17.204839 -24.667709 -4.696548 -1.505984 -2.203479 10.904473 18.789026 19.717852 7.762800 -7.125000 0.000000 0.000000 -9.368100 53.154000 -1.892200 5.004762 1.794455 -0.979868 77.976060 -4.838910 9.228294 -19.969698 29.153186 -5.769038 0.636762 -0.005345 2.769818 -19.961625 6.308363 -2.345400 7.125000 0.000000 0.000000 4.528900 -23.304600 2.374800 
-70.464366 107.086398 -57.755826 -160.336810 85.341206 -160.464802 -3.826191 0.851778 1.839762 -8.985252 -11.893959 -11.872037 3.077620 12.093666 37.065735 1.960652 -26.772351 2.288510 0.337100 -3.731000 -10.321100 1.741727 -1.133891 1.493467 14.532751 6.788213 -7.000865 -1.665326 -9.572924 28.466478 -0.303057 -0.852656 -3.818441 -0.052900 1.484300 -4.082400 0.487216 0.320725 10.588520 1.531202 0.762021 0.883734 0.101923 0.287061 -4.279636 -13.327719 -9.638235 -9.607753 7.092664 -11.214637 22.601905 4.504200 -5.442000 15.603900 -6.459034 -0.734199 -1.675180 -83.451941 4.459229 14.535043 17.693039 -25.246526 -4.961705 -1.445600 -2.275454 9.347993 18.871681 19.750553 7.817700 -7.125000 0.000000 0.000000 -9.314100 53.236600 -1.900100 4.998966 1.774155 -0.974545 77.024664 -4.494915 7.466597 -19.904735 29.121416 -5.752570 0.579229 -0.018817 1.235114 -18.331036 7.272471 -2.477300 7.125000 0.000000 0.000000 5.759300 -22.328100 3.155000 
-70.796130 106.850460 -56.212218 -163.330271 85.044068 -163.272574 -4.195697 0.693269 1.861977 -12.576575 -10.966566 -12.133457 2.771573 11.711271 35.919312 1.562337 -28.652142 2.927155 0.189600 -2.804300 -7.734300 1.704981 -1.027298 1.435380 14.930310 5.850069 -8.678752 -2.058671 -10.150601 30.408056 -0.885242 1.441318 -4.623395 -0.029300 1.104800 -3.037300 0.850778 0.019953 10.762074 1.622077 0.410382 0.710550 0.091677 0.118617 -4.680119 -13.335450 -9.294365 -9.650748 6.757750 -10.637989 22.871696 4.441700 -5.241800 15.658900 -6.427694 -0.745871 -1.722312 -84.399772 4.813670 15.402550 17.938162 -25.502760 -5.095413 -1.384445 -2.335252 8.025676 18.714414 19.735205 7.750800 -7.125000 0.000000 0.000000 -9.488700 53.217600 -1.931800 4.981190 1.759624 -0.987881 76.230300 -4.582303 5.981374 -20.218705 29.459689 -5.896048 0.655385 0.047618 0.170185 -20.117194 5.865891 -2.191100 7.125000 0.000000 0.000000 4.402800 -23.794100 2.258700 
-71.066034 106.490790 -54.709248 -165.468673 84.873124 -164.754613 -4.502260 0.564637 1.857667 -15.058628 -10.811476 -12.371491 2.270750 11.092154 33.902179 1.476285 -28.728534 3.129971 0.004900 -0.450800 -1.238700 1.676460 -0.923940 1.375844 15.133730 4.873987 -10.835544 -2.427746 -10.656169 32.097565 -1.538474 4.118620 -5.360756 -0.032600 1.164700 -3.202100 0.724419 -0.127649 10.339619 1.716851 0.179131 0.524864 0.373650 0.000252 -4.777468 -13.116011 -9.178698 -9.938526 6.542862 -10.460148 23.007121 4.307800 -5.153200 15.744400 -6.429197 -0.784718 -1.734966 -84.835554 4.473065 15.937737 17.744886 -25.202684 -4.979805 -1.395291 -2.334991 8.304236 18.568053 19.789914 7.708300 -7.125000 0.000000 0.000000 -9.660900 53.251700 -1.975400 4.992646 1.758066 -1.014073 75.831271 -4.724730 4.694361 -20.515072 29.841587 -6.077951 0.580256 0.063966 0.121456 -18.262193 5.793115 -1.943100 7.125000 0.000000 0.000000 5.835800 -23.957500 2.978200 
-71.321382 106.092912 -53.203242 -160.043372 84.654411 -159.029325 -4.652696 0.494076 1.915206 -15.760018 -9.661172 -12.397354 1.876674 10.757099 32.479045 2.561084 -17.305191 -4.088819 0.205300 -2.917600 -8.049500 1.688983 -0.910846 1.344355 16.047543 3.829197 -12.209296 -2.683345 -10.999674 33.158825 -2.189175 6.738772 -6.817882 -0.105600 2.095500 -5.769700 0.778858 -0.159192 10.314966 1.923817 0.160104 0.398424 0.840798 -0.034058 -5.028541 -12.881452 -9.026954 -10.136111 6.689347 -10.281714 23.037081 4.346200 -5.021300 15.786800 -6.401905 -0.823644 -1.742835 -84.862462 4.275839 17.789751 17.600419 -24.991867 -4.908520 -1.389456 -2.384643 7.459153 18.583968 20.073747 7.827000 -7.125000 0.000000 0.000000 -9.742000 53.578400 -2.070400 5.019648 1.757934 -1.041194 75.702830 -5.216428 3.320456 -20.884699 30.298856 -6.295080 0.527633 0.047509 1.220165 -17.169833 6.104014 -1.918300 7.125000 0.000000 0.000000 6.676100 -23.664600 3.457700 
-71.581584 106.157202 -51.616572 -163.974920 85.126897 -162.366713 -4.720423 0.538262 1.980002 -15.933451 -10.070613 -11.809621 1.541206 10.359217 31.281990 2.284065 -15.473920 -2.203362 0.504500 4.553100 12.638300 1.665870 -0.858675 1.293276 15.875428 2.450621 -13.813720 -2.942636 -11.267237 33.950504 -3.141889 11.186934 -7.888313 -0.234700 3.117700 -8.606500 -0.830917 -0.054737 10.121834 1.944832 0.060824 0.305837 1.858159 -0.070868 -5.108677 -12.665943 -8.922262 -10.507320 6.894633 -10.174241 22.918796 4.379600 -4.910300 15.798000 -6.339115 -0.839613 -1.759644 -84.686568 4.255868 18.955045 17.938587 -25.455951 -5.123157 -1.328087 -2.376415 7.358416 18.176709 19.917200 7.576800 -7.125000 0.000000 0.000000 -10.142000 53.319500 -2.092300 5.026181 1.762856 -1.061483 76.148992 -5.381084 3.307862 -21.157090 30.560914 -6.419271 0.576207 0.065894 -0.254249 -18.299122 6.106942 -2.053800 7.125000 0.000000 0.000000 5.804500 -23.625800 3.006600 
-72.131094 105.915804 -50.128158 -172.273628 85.590077 -170.270102 -4.786998 0.548431 2.041610 -15.670674 -9.578330 -12.305884 1.323750 10.079139 30.255941 2.395337 -15.238145 -3.081685 0.180700 2.738400 7.551300 1.537795 -0.734820 1.176608 15.349211 0.111724 -16.722393 -3.631148 -12.011821 36.404974 -3.957726 15.616038 -9.201567 -1.187000 6.914000 -19.460900 -2.519186 -0.051200 10.789262 1.793175 -0.200740 0.197033 2.576476 -0.158900 -5.601634 -12.353867 -8.807928 -11.032142 7.298375 -10.095968 22.751405 4.496900 -4.773400 15.876100 -6.287267 -0.855139 -1.785026 -83.949597 4.239095 20.137714 18.385557 -26.067067 -5.394625 -1.348658 -2.417050 6.719359 18.806549 20.465081 8.049800 -7.125000 0.000000 0.000000 -9.688500 54.031400 -2.166400 5.014651 1.835366 -1.069410 77.271141 -5.080424 2.684080 -21.185442 30.508401 -6.398374 0.624690 0.067288 1.245197 -19.743810 5.381651 -1.954900 7.125000 0.000000 0.000000 4.710000 -24.356200 2.356000 
-72.675756 105.944310 -48.579696 163.839086 86.057994 165.868650 -4.663717 0.726620 2.148412 -16.229524 -8.604090 -13.042846 1.182217 9.923112 29.644801 2.367349 -17.081169 -1.383785 0.297100 3.504800 9.687500 1.487412 -0.440554 0.977063 13.241257 -0.261054 -18.747718 -4.487173 -12.805415 39.335250 -4.486630 20.082226 -9.633632 -1.867600 8.584600 -24.504400 -4.924642 0.162543 11.833230 1.334056 -0.365698 0.255484 3.079654 -0.133852 -5.927326 -12.285971 -8.799393 -11.515281 7.838557 -10.135379 22.391948 4.720800 -4.710700 15.888700 -6.287862 -0.831592 -1.778438 -82.483493 3.783912 21.620040 18.708498 -26.525636 -5.607654 -1.313178 -2.425713 5.242047 19.062272 20.316065 8.115800 -7.125000 0.000000 0.000000 -9.328700 53.907900 -2.056600 4.972349 1.982839 -1.047041 78.894234 -4.721630 2.542474 -21.193389 30.483525 -6.400017 0.587611 0.011006 2.268062 -19.071673 6.456674 -2.279700 7.125000 0.000000 0.000000 5.220500 -23.195900 2.753300 
-73.225878 105.981918 -47.125248 171.734851 85.673008 174.000973 -4.653491 0.611364 2.092110 -14.718374 -8.433227 -13.869527 1.186790 9.929813 29.641888 2.427774 -17.326514 -0.904900 0.155100 2.537400 6.993500 1.294774 -0.458073 0.923884 13.320547 -1.071919 -20.476102 -4.966853 -13.288187 41.135313 -4.435068 23.616766 -8.169384 -1.752900 8.331300 -23.725000 -4.285126 -0.255356 12.154795 1.284108 -0.787511 0.404578 2.706194 -0.388266 -5.656338 -12.635703 -8.658026 -11.753758 8.151898 -9.848190 21.815153 4.988900 -4.628600 15.653600 -6.343134 -0.893703 -1.719767 -81.453662 2.687432 21.336869 18.498353 -26.259351 -5.475501 -1.356992 -2.429339 4.964678 19.436790 20.487821 8.358600 -7.125000 0.000000 0.000000 -8.955800 54.161400 -2.028900 4.972153 2.025481 -1.027733 80.628834 -3.929422 2.353572 -20.795850 29.991108 -6.170725 0.594019 -0.028581 2.815014 -19.314940 7.055015 -2.537800 7.125000 0.000000 0.000000 5.030400 -22.517700 2.730700 
